<?xml version="1.0" encoding="utf-8"?>
<!-- Generator: Adobe Illustrator 24.0.3, SVG Export Plug-In . SVG Version: 6.00 Build 0)  -->
<svg version="1.1" id="icon" xmlns="http://www.w3.org/2000/svg" xmlns:xlink="http://www.w3.org/1999/xlink" x="5px" y="5px"
	 width="32px" height="32px" viewBox="0 0 40 40" style="enable-background:new 0 0 40 40;" xml:space="preserve">
<style type="text/css">
	.st0{fill:none;}
</style>
<title>edit</title>
<g transform="translate(5,4)">
	<rect style="fill: #FAF9F6;" x="2" y="26" width="25" height="2"/>
	<path style="fill: #FAF9F6;" d="M25.4,9c0.8-0.8,0.8-2,0-2.8c0,0,0,0,0,0l-3.6-3.6c-0.8-0.8-2-0.8-2.8,0c0,0,0,0,0,0l-15,15V24h6.4L25.4,9z M20.4,4L24,7.6
	l-3,3L17.4,7L20.4,4z M6,22v-3.6l10-10l3.6,3.6l-10,10H6z"/>
</g>
<rect id="_Transparent_Rectangle_" class="st0" width="45" height="45"/>
</svg>
