<?xml version="1.0" encoding="utf-8"?>
<!-- Generator: Adobe Illustrator 27.5.0, SVG Export Plug-In . SVG Version: 6.00 Build 0)  -->
<svg version="1.1" id="icon" xmlns="http://www.w3.org/2000/svg" xmlns:xlink="http://www.w3.org/1999/xlink" x="0px" y="0px"
	 viewBox="0 0 32 32" style="enable-background:new 0 0 32 32;" xml:space="preserve">
<style type="text/css">
	.st0{fill:#4B1BCE;}
	.st1{fill:none;}
</style>
<path class="st0" d="M27.2,8.1l-1.5,1.3c3.3,3.9,3.1,9.5-0.3,13.2l1.5,1.4C30.9,19.6,31.1,12.7,27.2,8.1L27.2,8.1z"/>
<path class="st0" d="M21.6,12c2,2.3,1.9,5.7-0.2,7.9l1.5,1.4c2.7-3,2.8-7.5,0.2-10.6L21.6,12z"/>
<path class="st0" d="M18,30c-0.3,0-0.5-0.1-0.7-0.3L9.7,22H3c-0.6,0-1-0.4-1-1l0,0V11c0-0.6,0.4-1,1-1h6.7l7.6-7.7
	c0.4-0.4,1-0.4,1.4,0C18.9,2.5,19,2.7,19,3v26C19,29.6,18.6,30,18,30z M4,20h6.1c0.3,0,0.5,0.1,0.7,0.3l6.2,6.3V5.4l-6.2,6.3
	c-0.2,0.2-0.4,0.3-0.7,0.3H4V20z"/>
<rect id="_Transparent_Rectangle_" y="0" class="st1" width="32" height="32"/>
</svg>
