<?xml version="1.0" encoding="utf-8"?>
<!-- Generator: Adobe Illustrator 27.5.0, SVG Export Plug-In . SVG Version: 6.00 Build 0)  -->
<svg version="1.1" id="icon" xmlns="http://www.w3.org/2000/svg" xmlns:xlink="http://www.w3.org/1999/xlink" x="0px" y="0px"
	 viewBox="0 0 32 32" style="enable-background:new 0 0 32 32;" xml:space="preserve">
<style type="text/css">
	.st0{fill:#4B1BCE;}
	.st1{fill:none;}
</style>
<polygon class="st0" points="31,12.4 29.6,11 26,14.6 22.4,11 21,12.4 24.6,16 21,19.6 22.4,21 26,17.4 29.6,21 31,19.6 27.4,16 "/>
<path class="st0" d="M18,30c-0.3,0-0.5-0.1-0.7-0.3L9.7,22H3c-0.6,0-1-0.4-1-1l0,0V11c0-0.6,0.4-1,1-1h6.7l7.6-7.7
	c0.4-0.4,1-0.4,1.4,0C18.9,2.5,19,2.7,19,3v26C19,29.6,18.6,30,18,30z M4,20h6c0.3,0,0.6,0.1,0.8,0.3l6.2,6.3V5.4l-6.2,6.3
	C10.6,11.9,10.3,12,10,12H4V20z"/>
<rect id="_Transparent_Rectangle_" y="0" class="st1" width="32" height="32"/>
</svg>
